# xmcd
#
# Track frame offsets: 
#        150
#        14683
#        38570
#        67966
#        91890
#        113247
#        131922
#        158442
#        185642
#        199393
#        229039
#        253342
#        281151
#
# Disc length: 3917 seconds
#
# Revision: 7
# Processed by: cddbd v1.5.2PL0 Copyright (c) Steve Scherf et al.
# Submitted via: ExactAudioCopy v0.99pb4
#
DISCID=ba0f4b0d
DTITLE=Bruce Katz Band - A Deeper Blue
DYEAR=2004
DGENRE=blues
TTITLE0=Know It? I Wrote It!
TTITLE1=Greasy Sticks
TTITLE2=The Dark Room
TTITLE3=Yeah, Maybe
TTITLE4=Poptop
TTITLE5=The Stroll
TTITLE6=(Why Don't You Just) Go Home!
TTITLE7=Call It Gone
TTITLE8=Stovepipe Boogie
TTITLE9=Slinky
TTITLE10=Blues In D Natural
TTITLE11=For Cliff
TTITLE12=Jump'd
EXTD=
EXTT0=
EXTT1=
EXTT2=
EXTT3=
EXTT4=
EXTT5=
EXTT6=
EXTT7=
EXTT8=
EXTT9=
EXTT10=
EXTT11=
EXTT12=
PLAYORDER=
